<?xml version="1.0" standalone="no"?>
<!DOCTYPE svg PUBLIC "-//W3C//DTD SVG 20010904//EN"
 "http://www.w3.org/TR/2001/REC-SVG-20010904/DTD/svg10.dtd">
<svg version="1.0" xmlns="http://www.w3.org/2000/svg"
 width="512.000000pt" height="512.000000pt" viewBox="0 0 512.000000 512.000000"
 preserveAspectRatio="xMidYMid meet">

<g transform="translate(0.000000,512.000000) scale(0.100000,-0.100000)"
fill="#000000" stroke="none">
<path d="M1105 4675 c-305 -69 -537 -278 -638 -575 l-32 -95 -3 -402 -3 -403
210 0 211 0 0 323 c0 177 4 348 10 381 30 183 173 326 356 356 79 13 2609 13
2688 0 183 -30 326 -173 356 -356 13 -79 13 -2609 0 -2688 -30 -183 -173 -326
-356 -356 -79 -13 -2609 -13 -2688 0 -183 30 -326 173 -356 356 -6 33 -10 204
-10 382 l0 322 -210 0 -210 0 0 -372 c0 -407 4 -441 59 -583 41 -107 100 -195
190 -286 91 -90 179 -149 286 -190 161 -62 82 -60 1628 -57 l1412 3 95 33
c141 49 231 104 330 202 100 99 158 183 201 295 61 158 59 84 59 1595 0 1511
2 1437 -59 1595 -43 112 -101 196 -201 295 -99 98 -189 153 -330 202 l-95 33
-1420 2 c-1164 1 -1431 -1 -1480 -12z"/>
<path d="M2510 3621 c-42 -14 -84 -38 -107 -63 -54 -57 -69 -167 -34 -236 11
-20 132 -149 270 -287 138 -137 251 -253 251 -257 0 -5 -459 -8 -1020 -8
l-1020 0 0 -210 0 -210 1020 0 c561 0 1020 -3 1020 -8 0 -4 -113 -120 -251
-257 -138 -138 -259 -267 -270 -287 -35 -69 -20 -179 34 -236 60 -65 174 -85
252 -44 50 26 926 903 951 952 24 49 23 134 -4 185 -25 49 -903 926 -949 949
-40 20 -109 28 -143 17z"/>
</g>
</svg>
