<svg id="Ebene_1" data-name="Ebene 1" xmlns="http://www.w3.org/2000/svg" viewBox="0 0 425.2 283.46"><defs><style>.cls-1{fill:#FFFFFF;}.cls-2{fill:#FFFFFF;}</style></defs><title>Zeichenfläche 1</title><path class="cls-1" d="M399.21,98c-7-28.44-96.93-30.82-200.92-5.32-19.23,4.72-37.59,10.06-54.71,15.81h10.11c14.39-4.59,29.67-8.91,45.59-12.82C294.4,72.38,376.2,72.59,382,96.19s-66.64,61.63-161.76,84.95S43.3,204.26,37.52,180.66c-2.6-10.57,10.53-24,34.36-37.8H64.61c-29.13,16.9-45.31,33.95-42,47.52,7,28.45,96.93,30.83,200.92,5.33S406.19,126.48,399.21,98Z"/><path class="cls-1" d="M62.75,123.21H50.17L48,133.63H39.66L45,108.74h8.3l-1.89,8.89H63.94l1.89-8.89h8.29l-5.29,24.89h-8.3Z"/><path class="cls-1" d="M99.43,128c-1.57,3.13-5.85,6.37-13.9,6.37-8.51,0-12.56-3.24-11.07-10.24,1.43-6.69,7.36-10.18,15.2-10.18,8.09,0,12.36,3.52,10.68,11.4l-.12.56H81.68c-.13,2.43,1.23,4.21,5,4.21A6.49,6.49,0,0,0,91.62,128Zm-6-5.93c0-2.09-1.17-3.87-4.65-3.87s-5.43,1.78-6.29,3.87Z"/><path class="cls-1" d="M107.21,108.12h7.39l-5.43,25.51h-7.38Z"/><path class="cls-1" d="M118.78,108.12h7.39l-5.43,25.51h-7.38Z"/><path class="cls-1" d="M127.82,120.66c1.89-5.61,7.39-6.41,13.18-6.41,6.86,0,11.78,1.12,10.65,6.41l-2,9.55a5.5,5.5,0,0,0,0,3.42h-7.39a4.9,4.9,0,0,1,0-1.75c-2.56,2-5.7,2.51-9.42,2.51-6,0-8.82-1.95-8-5.89.91-4.28,4.1-5.82,9.47-6.16l7.46-.49c1.94-.14,2.34-.56,2.55-1.54.28-1.32-1-2-4.24-2-2.71,0-4.2.77-4.89,2.37Zm15.77,4.15a20,20,0,0,1-2.93.52l-5.11.6c-1.53.17-2.29.76-2.53,1.91-.31,1.47.83,2.3,2.82,2.3,4.25,0,7-1.6,7.51-4.18Z"/><path class="cls-1" d="M179.83,108.74H190l5.41,24.89h-8.89l-.63-4H175l-2.35,4h-8.89Zm3.72,6.28h-.07L178,124.43h7Z"/><path class="cls-1" d="M218.32,114.74h7.18l-3.66,17.18c-1.34,6.31-5.42,9-14.48,9-7.46,0-11.93-1.26-11.59-6.49h8.16c0,1.71,1.86,2.23,4,2.23,4.14,0,5.82-1.46,6.55-4.91l.28-1.32c-2,1.67-5.22,2.4-8.07,2.4-8,0-10.32-4.11-9.22-9.27,1.06-5,5.56-9.27,13.16-9.27,3.28,0,6,.84,7.08,2.89h.08Zm-8.56,13.38c4.18,0,5.93-2,6.44-4.42.57-2.65-.73-4.57-4.53-4.57s-5.87,2-6.39,4.5S206,128.12,209.76,128.12Z"/><path class="cls-1" d="M230.94,108.12h7.39l-5.42,25.51h-7.39Z"/><path class="cls-1" d="M240,120.66c1.89-5.61,7.4-6.41,13.18-6.41,6.86,0,11.78,1.12,10.66,6.41l-2,9.55a5.51,5.51,0,0,0,0,3.42h-7.39a5.15,5.15,0,0,1,0-1.75c-2.56,2-5.69,2.51-9.42,2.51-6,0-8.82-1.95-8-5.89.91-4.28,4.09-5.82,9.46-6.16l7.46-.49c1.94-.14,2.35-.56,2.55-1.54.29-1.32-1-2-4.24-2-2.71,0-4.2.77-4.89,2.37Zm15.78,4.15a20.59,20.59,0,0,1-2.93.52l-5.11.6c-1.54.17-2.29.76-2.54,1.91-.31,1.47.84,2.3,2.82,2.3,4.26,0,7-1.6,7.51-4.18Z"/><path class="cls-1" d="M269.46,114.74h7.39l-4,18.89h-7.39Z"/><path class="cls-1" d="M279.91,120.66c1.9-5.61,7.39-6.41,13.18-6.41,6.87,0,11.79,1.12,10.66,6.41l-2,9.55a5.59,5.59,0,0,0,0,3.42h-7.39a5.15,5.15,0,0,1,0-1.75c-2.56,2-5.69,2.51-9.42,2.51-6,0-8.82-1.95-8-5.89.91-4.28,4.09-5.82,9.46-6.16l7.46-.49c1.94-.14,2.35-.56,2.56-1.54.28-1.32-1-2-4.24-2-2.72,0-4.21.77-4.9,2.37Zm15.78,4.15a20.31,20.31,0,0,1-2.93.52l-5.11.6c-1.54.17-2.29.76-2.54,1.91-.31,1.47.84,2.3,2.82,2.3,4.25,0,7-1.6,7.52-4.18Z"/><path class="cls-2" d="M280.91,104.59a7.16,7.16,0,1,1-7.16-7.15A7.16,7.16,0,0,1,280.91,104.59Z"/></svg>